# xmcd
# 
# Track frame offsets:
#     182
#     11902
#     23482
#     36460
#     47782
#     64100
#     77245
#     90522
#     102482
#     115570
#     129380
#     142505
#     157572
#     172165
#     186627
#     200135
#     213605
#     224495
# 
# Disc length: 3168
# 
# Revision: 6
# Processed by: cddbd v1.5.2PL0 Copyright (c) Steve Scherf et al.
# Submitted via: fre:ac v1.0.27
# 
DISCID=010c5e12
DTITLE=Django Reinhardt - Hot Club de France
DYEAR=1985
DGENRE=Jazz
TTITLE0=Dinah
TTITLE1=Tiger Rag
TTITLE2=Lady Be Good
TTITLE3=I Saw Stars
TTITLE4=Lily Belle May June
TTITLE5=Sweet Sue
TTITLE6=Confessin'
TTITLE7=Continental
TTITLE8=Blue Drag
TTITLE9=Swanee River
TTITLE10=Ton Doux Sourire
TTITLE11=Ultra Fox
TTITLE12=Clouds
TTITLE13=Believe It Beloved
TTITLE14=Chasing Shadows
TTITLE15=I Have My Moments
TTITLE16=Some Of These Days
TTITLE17=Djangology
EXTD=YEAR: 1985
EXTT0=
EXTT1=
EXTT2=
EXTT3=
EXTT4=
EXTT5=
EXTT6=
EXTT7=
EXTT8=
EXTT9=
EXTT10=
EXTT11=
EXTT12=
EXTT13=
EXTT14=
EXTT15=
EXTT16=
EXTT17=
PLAYORDER=
